<?xml version="1.0" standalone="no"?>
<!DOCTYPE svg PUBLIC "-//W3C//DTD SVG 20010904//EN"
 "http://www.w3.org/TR/2001/REC-SVG-20010904/DTD/svg10.dtd">
<svg version="1.0" xmlns="http://www.w3.org/2000/svg"
 width="512.000000pt" height="512.000000pt" viewBox="0 0 512.000000 512.000000"
 preserveAspectRatio="xMidYMid meet">

<g transform="translate(0.000000,512.000000) scale(0.100000,-0.100000)"
fill="#000000" stroke="none">
<path d="M873 3745 c-134 -29 -187 -68 -434 -314 -167 -167 -232 -239 -250
-276 l-24 -50 0 -520 0 -520 31 -66 c52 -109 114 -167 232 -215 53 -21 56 -25
72 -76 53 -173 198 -305 369 -338 70 -13 432 -13 502 0 138 26 271 127 334
252 19 38 37 85 41 104 l6 34 368 0 368 0 6 -34 c4 -19 22 -66 41 -104 63
-125 196 -226 334 -252 70 -13 432 -13 502 0 76 15 170 61 223 110 l46 43 46
-43 c53 -49 147 -95 223 -110 70 -13 432 -13 502 0 138 26 271 127 334 253 20
39 38 88 41 109 5 31 13 41 41 54 47 23 108 96 122 147 9 30 11 151 9 432 l-3
390 -26 66 c-38 97 -71 149 -141 219 -72 71 -187 132 -282 149 -33 6 -187 11
-347 11 l-287 0 -219 191 c-232 204 -329 275 -421 309 -155 58 -74 55 -1232
57 -869 1 -1076 -1 -1127 -12z m647 -345 l0 -200 -320 0 c-265 0 -320 2 -313
13 4 8 68 98 141 200 l134 187 179 0 179 0 0 -200z m649 165 c45 -16 108 -45
140 -65 45 -30 272 -220 341 -286 12 -12 -55 -14 -478 -14 l-492 0 0 201 0
201 203 -4 c189 -4 207 -6 286 -33z m957 2 c44 -15 108 -45 142 -66 50 -33
248 -199 337 -282 19 -19 11 -19 -337 -19 l-357 0 -213 186 c-117 102 -220
193 -228 201 -13 13 21 14 280 11 289 -4 297 -5 376 -31z m1333 -538 c83 -13
158 -50 212 -105 l43 -44 -470 0 -470 0 -16 28 c-9 15 -41 51 -72 80 l-55 52
382 0 c216 0 410 -5 446 -11z m-4059 -234 c0 -17 -48 -75 -62 -75 -14 0 -18 9
-18 40 l0 40 40 0 c22 0 40 -2 40 -5z m3520 -155 l0 -80 -53 0 c-93 0 -162 50
-182 133 l-7 27 121 0 121 0 0 -80z m874 49 c3 -17 6 -53 6 -80 l0 -49 -360 0
-360 0 0 80 0 80 354 0 354 0 6 -31z m-3673 -235 c134 -40 225 -109 350 -265
39 -49 79 -94 89 -99 10 -6 59 -10 109 -10 l91 0 0 -80 0 -80 -164 0 -163 0
-7 38 c-9 59 -61 154 -115 210 -106 111 -223 157 -374 150 -62 -3 -111 -12
-150 -27 -125 -49 -245 -174 -283 -296 -10 -30 -23 -55 -30 -55 -21 0 -97 64
-118 99 l-20 34 22 15 c12 8 54 54 93 103 142 178 262 256 434 283 51 7 179
-3 236 -20z m2000 0 c134 -40 225 -109 350 -265 39 -49 79 -94 89 -99 12 -6
250 -10 629 -10 l611 0 0 -45 c0 -55 -15 -90 -47 -104 -17 -8 -218 -11 -672
-11 l-648 0 -7 38 c-9 59 -61 154 -115 210 -106 111 -223 157 -374 150 -62 -3
-111 -12 -150 -27 -127 -50 -248 -178 -285 -302 l-17 -59 -236 0 c-130 0 -257
-3 -283 -6 l-46 -7 0 82 0 81 211 0 c118 0 218 4 229 10 10 5 50 50 89 99 144
181 263 258 436 285 51 7 179 -3 236 -20z m1679 -134 l0 -80 -480 0 -480 0 0
80 0 80 480 0 480 0 0 -80z m-3689 -201 c108 -58 164 -153 164 -279 0 -181
-134 -315 -315 -315 -127 0 -227 62 -287 178 -23 45 -27 64 -27 137 0 72 4 93
26 136 38 73 69 106 129 139 71 38 102 45 182 40 51 -3 81 -11 128 -36z m2000
0 c108 -58 164 -153 164 -279 0 -181 -134 -315 -315 -315 -127 0 -227 62 -287
178 -23 45 -27 64 -27 137 0 72 4 93 26 136 38 73 69 106 129 139 71 38 102
45 182 40 51 -3 81 -11 128 -36z"/>
<path d="M905 1895 c-16 -15 -25 -36 -25 -55 0 -19 9 -40 25 -55 15 -16 36
-25 55 -25 19 0 40 9 55 25 16 15 25 36 25 55 0 19 -9 40 -25 55 -15 16 -36
25 -55 25 -19 0 -40 -9 -55 -25z"/>
<path d="M2905 1895 c-50 -49 -15 -135 55 -135 41 0 80 39 80 80 0 41 -39 80
-80 80 -19 0 -40 -9 -55 -25z"/>
</g>
</svg>
