<?xml version="1.0" standalone="no"?>
<!DOCTYPE svg PUBLIC "-//W3C//DTD SVG 20010904//EN"
 "http://www.w3.org/TR/2001/REC-SVG-20010904/DTD/svg10.dtd">
<svg version="1.0" xmlns="http://www.w3.org/2000/svg"
 width="512.000000pt" height="512.000000pt" viewBox="0 0 512.000000 512.000000"
 preserveAspectRatio="xMidYMid meet">

<g transform="translate(0.000000,512.000000) scale(0.100000,-0.100000)"
fill="#000000" stroke="none">
<path d="M1972 3899 c-107 -14 -200 -52 -282 -117 -61 -47 -60 -46 -326 -393
-129 -169 -240 -311 -247 -317 -6 -5 -190 -58 -407 -117 -229 -62 -421 -120
-457 -137 -120 -58 -217 -187 -243 -324 -17 -88 -8 -463 13 -524 36 -106 118
-206 213 -261 58 -33 162 -59 237 -59 42 0 50 -3 55 -22 3 -13 23 -58 44 -101
81 -159 236 -271 422 -303 80 -14 99 -14 180 0 187 31 344 144 424 304 21 42
41 87 44 100 l6 22 882 0 882 0 6 -22 c3 -13 23 -58 44 -101 81 -160 237 -272
424 -303 81 -14 100 -14 180 0 207 36 384 177 450 361 l22 60 103 6 c57 4 124
12 149 19 134 36 259 158 307 300 21 59 30 491 14 572 -24 112 -94 223 -179
282 -22 15 -141 74 -264 130 l-223 103 -191 304 c-210 335 -277 417 -390 476
-132 70 -90 67 -1004 69 -454 1 -853 -2 -888 -7z m1677 -209 c80 -14 147 -47
200 -102 23 -24 133 -189 245 -368 l203 -325 253 -117 c139 -64 264 -127 277
-140 14 -13 37 -43 51 -68 27 -45 27 -47 30 -268 4 -248 -3 -287 -59 -355 -49
-59 -99 -80 -204 -85 l-90 -4 -12 63 c-40 211 -228 398 -448 444 -90 19 -146
19 -237 0 -229 -49 -419 -242 -453 -462 l-7 -43 -867 0 -866 0 -12 60 c-30
156 -157 321 -303 394 -129 63 -248 79 -382 51 -192 -41 -353 -177 -424 -358
-13 -32 -26 -79 -30 -104 l-7 -46 -62 6 c-78 6 -138 37 -182 95 -49 65 -55
101 -51 326 3 225 10 251 81 313 47 41 64 47 512 168 215 57 404 112 420 120
19 10 125 140 289 356 142 187 273 352 290 366 41 35 126 73 184 83 72 12
1585 12 1661 0z m-2410 -1555 c71 -32 152 -112 182 -180 83 -188 5 -402 -179
-492 -51 -25 -68 -28 -157 -28 -87 0 -107 3 -155 26 -184 86 -264 306 -181
493 40 92 147 180 248 206 65 16 175 5 242 -25z m2890 0 c149 -67 240 -238
211 -397 -32 -175 -166 -296 -339 -306 -131 -7 -240 40 -318 139 -75 95 -98
245 -53 361 39 104 147 200 257 228 65 16 175 5 242 -25z"/>
</g>
</svg>
